<svg width="989" height="300" viewBox="0 0 989 300" fill="none" xmlns="http://www.w3.org/2000/svg">
<path d="M0 0H45V300H0V0Z" fill="#2781D3"/>
<path d="M165 45H210V255H165V45Z" fill="#2781D3"/>
<path d="M45 0H165V45H45V0Z" fill="#2781D3"/>
<path d="M45 255H165V300H45V255Z" fill="#2781D3"/>
<path d="M290 0H335V300H290V0Z" fill="#2781D3"/>
<path d="M415 0H516V45H415V0Z" fill="#2781D3"/>
<path d="M561 0H662V45H561V0Z" fill="#2781D3"/>
<path d="M516 45H561V300H516V45Z" fill="#2781D3"/>
<path d="M742 0H843V45H742V0Z" fill="#2781D3"/>
<path d="M888 0H989V45H888V0Z" fill="#2781D3"/>
<path d="M843 45H888V300H843V45Z" fill="#2781D3"/>
</svg>
