<svg width="1068" height="315" viewBox="0 0 1068 315" fill="none" xmlns="http://www.w3.org/2000/svg">
<path d="M0 67H45V315H0V67Z" fill="#2781D3"/>
<path d="M227 45H272V160H227V45Z" fill="#2781D3"/>
<path d="M225 181H270V315H225V181Z" fill="#2781D3"/>
<path d="M340 45H385V270H340V45Z" fill="#2781D3"/>
<path d="M532 5.24537e-06V45L412 45V0L532 5.24537e-06Z" fill="#2781D3"/>
<path d="M532 270V315H412V270H532Z" fill="#2781D3"/>
<path d="M480 136V181L410 181V136H480Z" fill="#2781D3"/>
<path d="M647 135H602V46L647 46V135Z" fill="#2781D3"/>
<path d="M915 134H870V45L915 45V134Z" fill="#2781D3"/>
<path d="M800 269H755V180H800V269Z" fill="#2781D3"/>
<path d="M1068 268H1023V179H1068V268Z" fill="#2781D3"/>
<path d="M90 67H180V112H90V67Z" fill="#2781D3"/>
<path d="M113 136H158V181H113V136Z" fill="#2781D3"/>
<path d="M45 1.00001H112V46H45V1.00001Z" fill="#2781D3"/>
<path d="M159 5.24537e-06H272V45H159V5.24537e-06Z" fill="#2781D3"/>
<path d="M670 46V1.00001L800 1V46L670 46Z" fill="#2781D3"/>
<path d="M938 45V9.06006e-06L1068 3.37758e-06V45L938 45Z" fill="#2781D3"/>
<path d="M670 180V135L800 135V180L670 180Z" fill="#2781D3"/>
<path d="M938 179V134L1068 134V179L938 179Z" fill="#2781D3"/>
<path d="M602 314V269H732V314H602Z" fill="#2781D3"/>
<path d="M870 313V268H1000V313H870Z" fill="#2781D3"/>
</svg>
